<?xml version="1.0" standalone="no"?>
<!DOCTYPE svg PUBLIC "-//W3C//DTD SVG 20010904//EN" "http://www.w3.org/TR/2001/REC-SVG-20010904/DTD/svg10.dtd">
<svg version="1.0" xmlns="http://www.w3.org/2000/svg"
  width="256.000000pt" height="171.000000pt" viewBox="0 0 256.000000 171.000000"
  preserveAspectRatio="xMidYMid meet">

  <g transform="translate(0.000000,171.000000) scale(0.100000,-0.100000)"
    fill="#283e78" stroke="none">
    <path d="M370 855 l0 -855 832 0 c694 0 830 2 818 13 -8 8 -99 80 -202 160
l-187 147 -88 -29 c-48 -16 -146 -38 -218 -49 -117 -18 -137 -24 -200 -61
-177 -104 -385 -148 -385 -82 0 23 25 38 121 74 147 55 259 128 259 168 0 28
-38 25 -198 -15 -262 -66 -367 -79 -396 -50 -43 43 -6 63 210 117 208 51 284
78 284 101 0 34 -34 36 -212 15 -310 -37 -376 -36 -392 8 -14 37 23 62 119 79
l40 8 -39 8 c-61 13 -106 38 -121 69 -42 80 11 139 125 139 l35 0 -51 24 c-61
28 -69 38 -53 67 10 20 17 21 78 16 36 -3 77 -9 91 -12 14 -4 -16 13 -65 38
-151 73 -205 139 -170 206 32 62 80 66 203 15 222 -92 225 -91 44 15 -143 84
-202 137 -202 181 0 71 41 106 115 97 50 -5 232 -90 368 -170 42 -25 77 -42
77 -37 0 14 -90 89 -202 167 -59 40 -118 87 -132 104 -33 39 -34 88 -3 125 19
22 32 27 68 27 101 -2 327 -127 518 -286 93 -78 177 -137 195 -137 9 0 6 25
-10 88 -26 99 -28 131 -13 185 23 84 126 153 188 127 34 -14 51 -52 51 -116 0
-55 40 -182 95 -304 26 -56 54 -141 69 -208 19 -84 32 -121 52 -145 45 -54 49
-55 182 -49 l122 5 0 433 0 434 -910 0 -910 0 0 -855z" />
    <path d="M711 1616 c-23 -27 1 -60 86 -117 240 -161 387 -309 345 -351 -18
-18 -64 1 -187 74 -279 164 -420 220 -449 175 -23 -36 30 -80 275 -222 94 -55
190 -116 212 -136 43 -37 44 -59 2 -59 -28 0 -182 53 -320 110 -162 67 -191
76 -209 60 -25 -20 -19 -45 19 -79 48 -42 118 -76 318 -155 207 -82 209 -83
205 -121 -3 -27 -8 -31 -47 -39 -29 -6 -114 -5 -240 3 -110 6 -209 8 -225 3
-42 -11 -55 -36 -33 -60 26 -29 84 -42 234 -52 259 -18 317 -31 463 -106 102
-51 236 -97 364 -123 93 -19 94 -20 197 -103 268 -218 406 -318 438 -318 l31
0 0 284 0 284 -148 115 c-149 116 -216 179 -232 221 -4 12 -18 67 -30 122 -11
54 -39 138 -61 186 -58 125 -98 253 -106 330 -5 61 -8 68 -27 68 -28 0 -76
-33 -92 -62 -21 -37 -16 -123 12 -230 31 -118 28 -133 -24 -123 -57 10 -123
50 -235 143 -236 196 -494 329 -536 278z" />
  </g>
</svg>