<?xml version="1.0" standalone="no"?>
<!DOCTYPE svg PUBLIC "-//W3C//DTD SVG 20010904//EN" "http://www.w3.org/TR/2001/REC-SVG-20010904/DTD/svg10.dtd">
<svg version="1.0" xmlns="http://www.w3.org/2000/svg"
  width="920.000000pt" height="640.000000pt" viewBox="0 0 920.000000 640.000000"
  preserveAspectRatio="xMidYMid meet">

  <g transform="translate(0.000000,640.000000) scale(0.100000,-0.100000)"
    fill="white" stroke="none">
    <path d="M4658 6357 c-146 -75 -239 -155 -583 -502 -415 -418 -502 -494 -663
-573 -104 -52 -374 -235 -420 -286 -72 -78 -84 -118 -94 -301 -18 -368 -83
-820 -233 -1640 -175 -956 -232 -1378 -254 -1880 -8 -184 -12 -210 -44 -323
-42 -147 -53 -232 -38 -287 13 -44 21 -50 376 -270 265 -165 377 -217 583
-269 101 -25 104 -25 188 -10 200 34 350 112 579 299 l85 70 0 62 c0 189 45
519 99 717 25 92 35 114 67 147 39 40 63 51 204 93 47 14 102 36 122 48 21 13
374 374 784 803 411 429 837 873 946 987 l199 207 94 358 c51 197 123 468 160
603 83 306 83 306 -55 400 -60 41 -61 41 -129 34 -194 -19 -299 88 -386 396
-74 263 -160 419 -308 557 -136 127 -480 368 -640 450 -92 46 -249 97 -372
121 -185 37 -174 37 -267 -11z m332 -94 c160 -60 282 -127 640 -355 190 -121
349 -224 353 -228 5 -4 4 -17 -2 -28 -16 -30 -4 -49 37 -63 45 -14 72 -36 72
-59 0 -10 18 -61 41 -115 22 -54 47 -125 56 -158 19 -75 13 -183 -12 -246
l-18 -44 -158 322 c-237 483 -257 506 -564 640 -170 74 -610 291 -614 303 -2
6 4 26 14 45 21 38 11 39 155 -14z m-253 -154 c323 -114 685 -297 926 -470
l91 -66 -3 -41 c-2 -35 1 -42 15 -42 33 0 99 -40 118 -70 14 -25 106 -264 106
-277 0 -9 -50 0 -85 16 -75 34 -164 112 -292 254 -70 78 -135 149 -143 159
-13 15 -95 29 -514 83 l-499 64 -126 -117 c-69 -65 -294 -275 -500 -467 -206
-193 -431 -403 -499 -467 -121 -112 -126 -119 -159 -200 -19 -46 -59 -162 -89
-258 -64 -198 -126 -368 -131 -354 -2 6 17 181 42 389 l46 380 53 55 c70 72
525 562 955 1028 189 204 347 372 351 372 15 0 35 -55 35 -96 0 -24 1 -44 2
-44 1 0 19 27 39 61 34 55 39 59 51 43 7 -10 13 -22 13 -27 0 -26 19 11 35 68
10 38 23 65 30 65 8 0 67 -19 132 -41z m45 -513 c62 -14 178 -32 258 -41 149
-17 264 -38 290 -55 11 -7 15 -27 14 -83 l-1 -75 55 39 c42 30 65 39 96 39 37
0 46 -6 106 -67 36 -38 127 -144 202 -238 74 -93 156 -190 182 -215 49 -47 55
-70 35 -129 -9 -25 -31 -44 -113 -92 -97 -58 -103 -60 -151 -54 -105 13 -168
54 -313 203 -208 214 -201 203 -219 329 -9 59 -17 109 -18 111 -1 1 -14 -3
-29 -9 -19 -9 -24 -17 -20 -34 4 -17 -5 -30 -40 -59 -62 -50 -114 -67 -234
-73 -147 -8 -212 11 -300 88 -37 32 -68 57 -69 55 -11 -11 27 -86 68 -133 48
-55 50 -60 45 -102 -8 -63 -47 -142 -98 -197 -44 -48 -162 -114 -204 -114 -20
0 -64 -41 -64 -60 0 -4 11 -11 25 -14 32 -8 49 -43 65 -135 l12 -74 23 71 c36
114 34 112 52 72 20 -45 12 -191 -16 -281 -10 -35 -24 -91 -30 -124 -18 -99
-58 -137 -166 -160 -38 -8 -104 -15 -145 -15 l-74 0 38 -39 c27 -28 37 -46 33
-60 -4 -18 3 -21 84 -32 l88 -12 16 -40 c24 -60 32 -153 22 -253 -5 -49 -9
-165 -10 -259 -1 -158 1 -175 25 -245 39 -114 48 -189 48 -403 0 -392 -73
-687 -225 -903 -25 -36 -57 -89 -71 -117 -117 -233 -328 -331 -739 -346 l-190
-6 37 -37 c38 -37 98 -62 176 -74 89 -14 24 -44 -96 -44 -92 0 -119 -8 -109
-33 14 -37 67 -52 184 -52 110 0 113 -1 113 -22 0 -13 -16 -116 -36 -230 -57
-332 -63 -373 -72 -476 -5 -54 -12 -100 -15 -103 -5 -5 -374 167 -734 342
-145 71 -162 82 -163 104 0 29 25 125 74 280 53 168 60 230 38 320 l-20 75
164 980 163 980 221 608 c121 335 220 610 220 612 0 4 469 451 838 799 272
256 271 256 272 166 0 -41 13 -81 23 -70 2 3 19 34 37 70 19 36 35 67 37 69 2
2 11 -3 20 -12 17 -14 18 -13 18 23 2 91 70 108 267 66z m-1374 -464 c-40 -38
-152 -142 -248 -231 l-175 -162 -3 37 c-2 21 2 57 8 81 20 71 68 115 213 196
217 121 262 146 270 146 4 1 -26 -30 -65 -67z m2897 -193 c15 -28 29 -74 32
-102 l5 -52 -37 37 c-31 30 -39 45 -43 87 -4 47 1 81 13 81 2 0 16 -23 30 -51z
m-1587 4 c-5 -36 -46 -118 -55 -110 -5 5 47 147 54 147 3 0 3 -17 1 -37z m494
-29 c34 -18 102 -77 190 -166 151 -151 218 -201 293 -219 76 -17 115 -40 143
-81 39 -59 29 -123 -36 -236 -29 -49 -55 -103 -58 -120 -4 -18 -17 -38 -33
-48 -14 -9 -98 -89 -186 -179 -168 -171 -224 -210 -315 -222 -39 -5 -45 -2
-173 95 -143 108 -322 259 -430 362 l-68 65 89 235 c49 129 103 262 120 296
110 217 298 306 464 218z m1434 -145 c68 -26 144 -94 144 -130 -1 -77 -58
-268 -127 -424 -99 -223 -134 -348 -137 -488 l-1 -87 -35 -21 c-49 -30 -61
-49 -57 -89 5 -52 -51 -146 -182 -303 -55 -66 -156 -159 -533 -490 l-67 -59
-28 32 c-15 18 -43 80 -63 139 -20 58 -84 207 -142 331 -172 363 -180 391 -90
314 34 -29 61 -73 135 -222 52 -103 113 -233 137 -289 25 -56 46 -101 47 -99
6 6 -78 240 -142 396 -37 91 -78 195 -91 232 l-23 68 167 160 167 160 28 -33
c16 -17 70 -95 121 -172 103 -155 169 -224 251 -261 68 -31 93 -28 122 15 26
38 29 51 11 51 -25 0 -123 52 -166 87 -49 40 -166 177 -226 265 l-38 57 4 93
c6 113 30 178 98 270 47 62 52 66 100 72 36 5 66 19 112 51 90 65 163 98 198
92 24 -5 32 -1 55 29 46 61 77 140 73 187 -3 23 -8 49 -12 59 -9 20 7 25 81
27 31 1 75 -7 109 -20z m-436 -189 c0 -29 -40 -79 -79 -100 -50 -25 -133 -27
-181 -2 -28 13 -36 24 -38 50 -3 28 5 41 61 100 35 37 70 78 77 91 12 23 13
23 86 -50 41 -40 74 -80 74 -89z m143 99 c20 -5 37 -15 37 -22 0 -19 -27 -53
-60 -77 l-30 -21 0 65 c0 36 3 66 8 66 4 0 24 -5 45 -11z m-1775 -114 c-6 -14
-13 -23 -15 -21 -5 5 15 46 22 46 3 0 -1 -11 -7 -25z m76 -657 c61 -51 185
-153 276 -226 217 -177 201 -158 155 -178 -31 -13 -71 -16 -187 -15 -81 1
-155 4 -165 7 -15 5 -15 4 -3 -4 8 -6 59 -25 113 -42 82 -27 95 -35 85 -47
-17 -21 -59 -41 -132 -63 -71 -22 -98 -45 -90 -77 7 -25 -7 -26 194 13 130 26
226 62 236 89 5 11 21 15 60 15 30 0 54 -4 54 -9 0 -5 47 -107 104 -227 116
-245 162 -364 181 -472 l13 -74 -275 -324 c-151 -178 -317 -364 -369 -413
-108 -102 -231 -190 -354 -251 -134 -67 -142 -69 -227 -49 -41 9 -76 18 -78
21 -2 2 3 18 12 35 11 24 34 41 87 68 39 19 76 43 83 53 6 10 18 54 27 98 39
196 49 294 55 582 l6 293 -30 -3 -30 -3 -14 130 c-18 172 -19 797 -2 915 9 63
23 106 54 168 23 45 44 82 46 82 2 0 53 -42 115 -92z m-246 -1898 c-3 -59 -12
-92 -36 -145 -18 -37 -34 -66 -37 -63 -8 8 59 296 69 291 4 -3 6 -40 4 -83z
m-588 -851 c0 -6 -9 -24 -21 -40 -16 -23 -28 -29 -55 -29 -42 0 -38 10 18 51
44 31 58 36 58 18z m236 -86 c-8 -29 -16 -107 -31 -303 -20 -258 -53 -354
-147 -422 -31 -22 -88 -51 -88 -45 0 16 136 571 155 633 42 138 51 154 86 154
24 0 29 -4 25 -17z m-267 -90 c0 -10 -28 -184 -62 -388 l-63 -370 -37 -18
c-21 -9 -58 -20 -84 -24 l-46 -6 5 29 c3 16 26 148 52 294 44 251 74 395 97
468 10 32 11 32 75 32 55 0 64 -3 63 -17z" />
  </g>
</svg>